<?xml version="1.0" encoding="utf-8"?>
<!-- Generator: Adobe Illustrator 17.0.0, SVG Export Plug-In . SVG Version: 6.00 Build 0)  -->
<!DOCTYPE svg PUBLIC "-//W3C//DTD SVG 1.1//EN" "http://www.w3.org/Graphics/SVG/1.1/DTD/svg11.dtd">
<svg version="1.1" id="Layer_1" xmlns="http://www.w3.org/2000/svg" xmlns:xlink="http://www.w3.org/1999/xlink" x="0px" y="0px"
	 width="586.346px" height="448.453px" viewBox="0 0 586.346 448.453" enable-background="new 0 0 586.346 448.453"
	 xml:space="preserve">
<path fill="#1160A4" d="M545.19,333.959c0,0-42.625-15.125-43.542-16.041s0.084-2.75,0.084-2.75s2.917-17.334,2.917-34.334
	s-2.166-45.167-16.833-77.167s-48.333-74-103-74s-93.527,21.985-93.527,21.985l-53.116-87.798c0,0-4.856-12.354-21.024-12.354
	c0,0-3.208-0.479-7.458,2.583s-23.625,17-23.625,17s-4.437,2.821-4.437,14.254s-3.325,142.998-3.325,142.998
	s-20.734,15.998-24.988,32.873c-4.254,16.875-4.215,36.147-4.215,44.699l-101.43,38.386c0,0-9.107,2.666-9.107,11.791
	c0,0,0.031,3.188,0.813,5.031c0.782,1.843,2.685,6.084,4.125,11.969c1.44,5.885,16.688,21.625,52.688,21.625s76-15.75,76-15.75
	s1.375-0.541,2.292,0.376c0,0,13.083,20.124,47.708,36.749c0,0,0.667,0.293,0.958,0.584c0.292,0.291,6.292,5.166,10.042,6.666
	s52.125,18.5,106.875,18.5c0,0,23.75,0,38.5-4.75c0,0,0.666-0.5,2.583-0.5s23.542-3.375,34.542-7.375s18.25-8.875,20.125-10.75
	s10-5.875,14.375-10.25s16.375-14.5,23.875-25.875c0,0,7.5,0.5,13.75,0.5s22.625,0.5,34.875-5.125s20.375-12.125,22.125-18.125
	s3.869-10.748,4.435-13.187S549.44,335.959,545.19,333.959z M388.813,390c-44.367,0-80.333-48.652-80.333-108.667
	s35.966-108.667,80.333-108.667s80.333,48.652,80.333,108.667S433.18,390,388.813,390z"/>
</svg>
